<svg width="18" height="18" viewBox="0 0 18 18" fill="none" xmlns="http://www.w3.org/2000/svg">
<path d="M2.08 13.01L1.42103 13.3682L1.43056 13.3857L1.44099 13.4027L2.08 13.01ZM2.136 13.7311L1.42906 13.4806L1.42276 13.4984L1.41737 13.5165L2.136 13.7311ZM1.6 15.5258L0.881365 15.3112L0.879255 15.3182L0.877284 15.3253L1.6 15.5258ZM2.256 16.1507L2.04213 15.4318L2.03119 15.4352L2.256 16.1507ZM3.872 15.67L4.08585 16.3889L4.09576 16.3859L4.1056 16.3827L3.872 15.67ZM5.064 15.9584L4.67397 16.5991L4.68292 16.6044L5.064 15.9584ZM9.016 0.25C3.92807 0.25 0.25 4.40967 0.25 9.01202H1.75C1.75 5.18572 4.80793 1.75 9.016 1.75V0.25ZM0.25 9.01202C0.25 10.501 0.682457 12.0092 1.42103 13.3682L2.73897 12.6519C2.10154 11.479 1.75 10.2151 1.75 9.01202H0.25ZM1.44099 13.4027C1.43742 13.3969 1.44007 13.3975 1.44099 13.4102C1.44198 13.4237 1.44058 13.4481 1.42906 13.4806L2.84294 13.9816C2.99427 13.5545 2.98377 13.0483 2.71901 12.6174L1.44099 13.4027ZM1.41737 13.5165L0.881365 15.3112L2.31863 15.7404L2.85463 13.9457L1.41737 13.5165ZM0.877284 15.3253C0.74649 15.7969 0.875154 16.2801 1.22124 16.5996C1.55909 16.9116 2.03706 17.0057 2.48081 16.8662L2.03119 15.4352C2.06694 15.424 2.15691 15.4219 2.23876 15.4975C2.27748 15.5333 2.30533 15.5795 2.31857 15.6285C2.33202 15.6783 2.32607 15.7142 2.32272 15.7262L0.877284 15.3253ZM2.46985 16.8696L4.08585 16.3889L3.65815 14.9511L2.04215 15.4319L2.46985 16.8696ZM4.1056 16.3827C4.161 16.3645 4.19722 16.3647 4.25939 16.3838C4.35075 16.4119 4.46541 16.4721 4.67401 16.5991L5.45399 15.3178C5.06455 15.0807 4.4396 14.6947 3.6384 14.9573L4.1056 16.3827ZM4.68292 16.6044C5.97811 17.3685 7.56828 17.75 9 17.75V16.25C7.80772 16.25 6.48589 15.9265 5.44508 15.3125L4.68292 16.6044ZM9 17.75C13.3229 17.75 17.75 14.4026 17.75 8.98798H16.25C16.25 13.4602 12.6131 16.25 9 16.25V17.75ZM17.75 8.98798C17.75 4.32918 13.9918 0.25 9.016 0.25V1.75C13.1282 1.75 16.25 5.12199 16.25 8.98798H17.75Z" fill="#cd2653"/>
</svg>
