<svg width="19" height="18" viewBox="0 0 19 18" fill="none" xmlns="http://www.w3.org/2000/svg">
<path d="M1.9 18L4.75 18L14.5417 18C15.3292 18 16.0436 17.5064 16.321 16.7703L18.9401 9.80621C18.98 9.7001 19 9.58737 19 9.47368L19 7.57895C19 6.534 18.1478 5.68421 17.1 5.68421L11.7686 5.68421L12.8345 2.49442C13.0273 1.91842 12.9304 1.27989 12.5742 0.787263C12.217 0.294631 11.6413 6.43318e-07 11.0314 6.96637e-07L9.5 8.30516e-07C9.21785 8.55183e-07 8.9509 0.125054 8.76945 0.341054L4.30445 5.68421L1.9 5.68421C0.852149 5.68421 -1.00239e-06 6.534 -9.11037e-07 7.57895L-1.65643e-07 16.1053C-7.4291e-08 17.1502 0.85215 18 1.9 18ZM9.94555 1.89474L11.0333 1.89474L9.5494 6.33221C9.45155 6.62116 9.50095 6.93853 9.67955 7.18579C9.85815 7.43305 10.145 7.57895 10.45 7.57895L17.1 7.57895L17.1 9.30221L14.5417 16.1053L5.7 16.1053L5.7 6.97453L9.94555 1.89474ZM3.8 7.57895L3.8 16.1053L1.9 16.1053L1.89905 7.57895L3.8 7.57895Z" fill="#6A6D74"/>
</svg>
