<svg width="29" height="28" viewBox="0 0 29 28" fill="none" xmlns="http://www.w3.org/2000/svg">
<path d="M13.6485 1.38302C14.039 0.748752 14.961 0.748751 15.3515 1.38302L19.4499 8.03934C19.5882 8.26394 19.8096 8.42481 20.0659 8.48692L27.6629 10.3278C28.3868 10.5032 28.6717 11.3801 28.1892 11.9475L23.1251 17.9021C22.9542 18.1031 22.8697 18.3634 22.8898 18.6263L23.4867 26.4204C23.5435 27.163 22.7976 27.705 22.1088 27.4214L14.8807 24.4453C14.6368 24.3448 14.3632 24.3448 14.1193 24.4453L6.89116 27.4214C6.2024 27.705 5.45647 27.163 5.51334 26.4204L6.1102 18.6263C6.13034 18.3634 6.04577 18.1031 5.8749 17.9021L0.810818 11.9475C0.328269 11.3801 0.613188 10.5032 1.3371 10.3278L8.93409 8.48692C9.19042 8.42481 9.41184 8.26394 9.55013 8.03934L13.6485 1.38302Z" fill="#CCCCCC"/>
</svg>
